HIERARCHY
ROOT hip
{
	OFFSET 0.000000 0.000000 0.000000
	CHANNELS 6 Xposition Yposition Zposition Xrotation Zrotation Yrotation 
	JOINT abdomen
	{
		OFFSET 0.000000 3.422050 0.000000
		CHANNELS 3 Xrotation Zrotation Yrotation 
		JOINT chest
		{
			OFFSET 0.000000 8.486693 -0.684411
			CHANNELS 3 Xrotation Zrotation Yrotation 
			JOINT neck
			{
				OFFSET 0.000000 10.266162 -0.273764
				CHANNELS 3 Xrotation Zrotation Yrotation 
				JOINT head
				{
					OFFSET 0.000000 3.148285 0.000000
					CHANNELS 3 Xrotation Zrotation Yrotation 
					End Site
					{
						OFFSET 0.000000 3.148289 0.000000
					}
				}
			}
			JOINT lCollar
			{
				OFFSET 3.422053 6.707223 -0.821293
				CHANNELS 3 Yrotation Zrotation Xrotation 
				JOINT lShldr
				{
					OFFSET 3.285171 0.000000 0.000000
					CHANNELS 3 Zrotation Yrotation Xrotation 
					JOINT lForeArm
					{
						OFFSET 10.129278 0.000000 0.000000
						CHANNELS 3 Yrotation Zrotation Xrotation 
						JOINT lHand
						{
							OFFSET 8.486692 0.000000 0.000000
							CHANNELS 3 Zrotation Yrotation Xrotation 
							End Site
							{
								OFFSET 4.106464 0.000000 0.000000
							}
						}
					}
				}
			}
			JOINT rCollar
			{
				OFFSET -3.558935 6.707223 -0.821293
				CHANNELS 3 Yrotation Zrotation Xrotation 
				JOINT rShldr
				{
					OFFSET -3.148289 0.000000 0.000000
					CHANNELS 3 Zrotation Yrotation Xrotation 
					JOINT rForeArm
					{
						OFFSET -10.266159 0.000000 0.000000
						CHANNELS 3 Yrotation Zrotation Xrotation 
						JOINT rHand
						{
							OFFSET -8.349810 0.000000 0.000000
							CHANNELS 3 Zrotation Yrotation Xrotation 
							End Site
							{
								OFFSET -4.106464 0.000000 0.000000
							}
						}
					}
				}
			}
		}
	}
	JOINT lThigh
	{
		OFFSET 5.338403 -1.642589 1.368821
		CHANNELS 3 Xrotation Zrotation Yrotation 
		JOINT lShin
		{
			OFFSET -2.053232 -20.121670 0.000000
			CHANNELS 3 Xrotation Zrotation Yrotation 
			JOINT lFoot
			{
				OFFSET 0.000000 -19.300380 -1.231939
				CHANNELS 3 Xrotation Yrotation Zrotation 
				End Site
				{
					OFFSET 0.000000 -2.463878 4.653993
				}
			}
		}
	}
	JOINT rThigh
	{
		OFFSET -5.338403 -1.642589 1.368821
		CHANNELS 3 Xrotation Zrotation Yrotation 
		JOINT rShin
		{
			OFFSET 2.053232 -20.121670 0.000000
			CHANNELS 3 Xrotation Zrotation Yrotation 
			JOINT rFoot
			{
				OFFSET 0.000000 -19.300380 -1.231939
				CHANNELS 3 Xrotation Yrotation Zrotation 
				End Site
				{
					OFFSET 0.000000 -2.463878 4.653993
				}
			}
		}
	}
}
MOTION
Frames: 20
Frame Time: 0.049989
1.937198 8.243574 0.793392 -7.001640 90.000000 0.000000 30.917093 0.234563 -0.000824 1.131692 0.813482 -0.594614 22.656425 -8.797931 0.026101 10.002331 -24.736740 0.974073 -3.924892 -21.155409 -1.464178 -21.041666 -47.713146 4.572004 -48.227467 -51.354183 -13.119066 11.644537 12.819907 1.949040 -9.937267 -12.440046 13.886220 92.132919 -29.810043 -5.141592 111.781799 4.693050 16.837959 -8.263638 19.980213 -18.526831 -58.289429 27.470137 35.109390 112.312096 -19.416391 -4.011219 14.006222 -6.067960 -0.464576 -61.276085 -21.283089 -10.955832 80.855331 2.268421 0.614720 8.773163 -1.559387 -4.097214 
1.798827 8.255589 0.736722 -7.001640 90.000000 0.000000 30.184454 0.234472 -0.000912 1.531484 0.813550 -0.594642 22.313463 -8.594942 0.051269 10.004721 -24.470421 0.950971 -5.201209 -22.053873 -1.735190 -20.992453 -47.194923 4.626739 -45.374187 -49.578201 -11.107002 10.278758 11.935124 1.667783 -9.672754 -11.602740 13.229192 91.426895 -29.445396 -4.892174 111.281219 4.364451 16.866909 -8.107234 19.042471 -18.196913 -58.046959 27.349474 35.155758 111.784256 -19.531128 -3.828666 14.313663 -6.188219 -0.393172 -60.941673 -21.243563 -11.036067 80.209427 2.330965 0.581622 9.082259 -1.527334 -4.115315 
1.660455 8.267604 0.680051 -7.001640 90.000000 0.000000 29.451483 0.234379 -0.000999 1.931329 0.813619 -0.594669 21.970612 -8.391713 0.075206 10.006989 -24.204044 0.927924 -6.492883 -22.948166 -2.030210 -20.942980 -46.676620 4.681612 -42.713127 -47.740906 -9.297829 8.918784 11.042127 1.408439 -9.398949 -10.767569 12.569422 90.724922 -29.077963 -4.648702 110.780899 4.035515 16.892973 -7.957249 18.103125 -17.871237 -57.804863 27.228636 35.201511 111.255547 -19.644295 -3.644827 14.621352 -6.308105 -0.321097 -60.607384 -21.203602 -11.116041 79.563232 2.393155 0.547807 9.391383 -1.495376 -4.133590 
1.522084 8.279619 0.623380 -7.001640 90.000000 0.000000 28.718241 0.234285 -0.001085 2.331218 0.813687 -0.594695 21.627865 -8.188252 0.097912 10.009133 -23.937607 0.904932 -7.800343 -23.837435 -2.349699 -20.893248 -46.158245 4.736618 -40.227139 -45.851841 -7.674507 7.564508 10.141764 1.171054 -9.115873 -9.934821 11.906777 90.026978 -28.707819 -4.411165 110.280777 3.706282 16.916153 -7.813542 17.162363 -17.549614 -57.563114 27.107616 35.246628 110.725967 -19.755877 -3.459723 14.929291 -6.427614 -0.248353 -60.273205 -21.163200 -11.195748 78.916794 2.454978 0.513280 9.700537 -1.463516 -4.152039 
1.383713 8.291634 0.566709 -7.001640 90.000000 0.000000 27.984791 0.234190 -0.001170 2.731142 0.813756 -0.594721 21.285221 -7.984571 0.119387 10.011160 -23.671116 0.881993 -9.124007 -24.720810 -2.694112 -20.843262 -45.639832 4.791768 -37.899834 -43.919704 -6.220774 6.215802 9.234896 0.955649 -8.823549 -9.104789 11.241127 89.333038 -28.335085 -4.179533 109.780853 3.376796 16.936447 -7.675970 16.220356 -17.231863 -57.321716 26.986423 35.291138 110.195572 -19.865860 -3.273377 15.237470 -6.546739 -0.174942 -59.939159 -21.122360 -11.275181 78.270134 2.516421 0.478048 10.009709 -1.431753 -4.170660 
1.245342 8.303648 0.510038 -7.001640 90.000000 0.000000 27.251194 0.234094 -0.001253 3.131089 0.813825 -0.594747 20.942688 -7.780685 0.139628 10.013065 -23.404572 0.859107 -10.464280 -25.597406 -3.063879 -20.793020 -45.121395 4.847061 -35.715942 -41.952450 -4.921424 4.872530 8.322391 0.762222 -8.521995 -8.277768 10.572351 88.643089 -27.959845 -3.953796 109.281158 3.047103 16.953859 -7.544405 15.277283 -16.917810 -57.080692 26.865067 35.335022 109.664368 -19.974218 -3.085805 15.545888 -6.665473 -0.100866 -59.605259 -21.081093 -11.354341 77.623291 2.577472 0.442116 10.318901 -1.400090 -4.189452 
1.106970 8.315663 0.453367 -7.001640 90.000000 0.000000 26.517504 0.233997 -0.001336 3.531050 0.813894 -0.594772 20.600260 -7.576604 0.158638 10.014849 -23.137978 0.836271 -11.821564 -26.466335 -3.459423 -20.742521 -44.602951 4.902499 -32.777676 -40.274662 -2.805578 3.534537 7.405116 0.590749 -8.211233 -7.454049 9.900323 87.957115 -27.582188 -3.733924 108.781670 2.717244 16.968388 -7.418721 14.333322 -16.607288 -56.840031 26.743544 35.378292 109.132423 -20.080952 -2.897036 15.854545 -6.783814 -0.026128 -59.271500 -21.039389 -11.433218 76.976318 2.638121 0.405491 10.628104 -1.368528 -4.208414 
0.968599 8.327678 0.396696 -7.001640 90.000000 0.000000 25.783779 0.233898 -0.001417 3.931018 0.813963 -0.594796 20.257933 -7.372340 0.176414 10.016515 -22.871340 0.813486 -13.196233 -27.326689 -3.881133 -20.691767 -44.084541 4.958088 -29.985466 -38.515163 -0.849274 2.201660 6.483950 0.441185 -7.891285 -6.633924 9.224930 87.275101 -27.202227 -3.519898 108.282379 2.387262 16.980036 -7.298798 13.388651 -16.300133 -56.599731 26.621862 35.420944 108.599731 -20.186031 -2.707086 16.163441 -6.901756 0.049271 -58.937916 -20.997263 -11.511815 76.329262 2.698354 0.368180 10.937317 -1.337069 -4.227548 
0.830228 8.339693 0.340025 -7.001640 90.000000 0.000000 25.050085 0.233799 -0.001496 4.330980 0.814032 -0.594820 19.915714 -7.167906 0.192957 10.018068 -22.604666 0.790750 -14.588655 -28.177578 -4.329385 -20.640751 -43.566166 5.013824 -27.333157 -36.683693 0.953381 0.873729 5.559769 0.313466 -7.562173 -5.817690 8.546066 86.597008 -26.820053 -3.311684 107.783287 2.057199 16.988804 -7.184526 12.443443 -15.996189 -56.359776 26.500025 35.462986 108.066299 -20.289440 -2.515979 16.472561 -7.019288 0.125327 -58.604473 -20.954712 -11.590126 75.682159 2.758160 0.330189 11.246536 -1.305714 -4.246851 
0.691856 8.351707 0.283354 -7.001640 90.000000 0.000000 24.316484 0.233699 -0.001575 4.730928 0.814102 -0.594844 19.573597 -6.963313 0.208268 10.019498 -22.337940 0.768063 -15.999151 -29.018059 -4.804511 -20.589497 -43.047878 5.069721 -24.813553 -34.789665 2.609333 -0.449435 4.633447 0.207509 -7.223921 -5.005639 7.863619 85.922829 -26.435762 -3.109259 107.284348 1.727098 16.994684 -7.075793 11.497870 -15.695297 -56.120178 26.378021 35.504395 107.532204 -20.391180 -2.323738 16.781914 -7.136411 0.202039 -58.271206 -20.911736 -11.668145 75.035042 2.817529 0.291527 11.555753 -1.274464 -4.266322 
0.553485 8.363722 0.226684 -7.001640 90.000000 0.000000 23.583035 0.233597 -0.001652 5.130851 0.814172 -0.594867 19.231579 -6.758572 0.222345 10.020815 -22.071184 0.745422 -17.428034 -29.847231 -5.306818 -20.537979 -42.529667 5.125773 -22.418839 -32.842083 4.126152 -1.768018 3.705856 0.123212 -6.876551 -4.198061 7.177490 85.252533 -26.049450 -2.912590 106.785637 1.397007 16.997698 -6.972499 10.552111 -15.397305 -55.880932 26.255871 35.545200 106.997452 -20.491222 -2.130385 17.091488 -7.253115 0.279403 -57.938107 -20.868336 -11.745871 74.387955 2.876448 0.252200 11.864965 -1.243320 -4.285959 
0.415114 8.375737 0.170013 -7.001640 90.000000 0.000000 22.849796 0.233495 -0.001728 5.530740 0.814242 -0.594890 18.889671 -6.553699 0.235189 10.022014 -21.804392 0.722828 -18.875572 -30.664173 -5.836574 -20.486216 -42.011581 5.181985 -20.140907 -30.849506 5.511704 -3.082208 2.777862 0.060455 -6.520090 -3.395249 6.487584 84.586075 -25.661213 -2.721642 106.287071 1.066963 16.997835 -6.874548 9.606334 -15.102069 -55.642063 26.133581 35.585396 106.462051 -20.589546 -1.935945 17.401289 -7.369397 0.357419 -57.605186 -20.824520 -11.823297 73.740936 2.934906 0.212217 12.174170 -1.212285 -4.305765 
0.276743 8.387752 0.113342 -7.001640 90.000000 0.000000 22.116825 0.233392 -0.001802 5.930586 0.814312 -0.594912 18.547865 -6.348705 0.246800 10.023098 -21.537571 0.700279 -20.341993 -31.467957 -6.393997 -20.434195 -41.493626 5.238359 -17.436720 -29.069611 7.376373 -4.392196 1.850323 0.019105 -6.154564 -2.597491 5.793807 83.923454 -25.271151 -2.536382 105.788681 0.737012 16.995100 -6.781848 8.660710 -14.809450 -55.403534 26.011141 35.624977 105.926056 -20.686148 -1.740443 17.711300 -7.485247 0.436081 -57.272449 -20.780287 -11.900424 73.094025 2.992894 0.171584 12.483361 -1.181359 -4.325735 
0.138371 8.399767 0.056671 -7.001640 90.000000 0.000000 21.384180 0.233288 -0.001875 6.330379 0.814382 -0.594934 18.206158 -6.143600 0.257178 10.024068 -21.270720 0.677774 -21.827488 -32.257687 -6.979261 -20.381918 -40.975822 5.294896 -14.842759 -27.215708 9.114410 -5.698170 0.924090 -0.000992 -5.780004 -1.805074 5.096074 83.264618 -24.879354 -2.356777 105.290443 0.407195 16.989496 -6.694311 7.715413 -14.519304 -55.165359 25.888561 35.663948 105.389481 -20.781010 -1.543901 18.021532 -7.600666 0.515389 -56.939903 -20.735640 -11.977244 72.447281 3.050399 0.130311 12.792534 -1.150544 -4.345870 
0.000000 8.411781 0.000000 -7.001640 90.000000 0.000000 20.651936 0.233183 -0.001947 6.730107 0.814452 -0.594955 17.864552 -5.938398 0.266324 10.024926 -21.003847 0.655312 -23.332170 -33.032413 -7.592477 -20.329395 -40.458214 5.351603 -12.355579 -25.297012 10.728879 -7.000325 0.000000 0.000000 -5.396439 -1.018284 4.394304 82.609543 -24.485922 -2.182783 104.792374 0.077556 16.981030 -6.611860 6.770608 -14.231506 -54.927532 25.765841 35.702305 104.852379 -20.874126 -1.346347 18.331970 -7.715641 0.595339 -56.607540 -20.690577 -12.053754 71.800735 3.107412 0.088407 13.101685 -1.119841 -4.366170 
0.138371 8.399767 0.056671 -7.001640 90.000000 0.000000 21.384182 0.233288 -0.001875 6.330379 0.814382 -0.594934 17.523041 -5.733109 0.274239 10.025668 -20.736948 0.632893 -21.827488 -32.257687 -6.979261 -20.381920 -40.975826 5.294898 -14.669354 -27.300226 9.311568 -5.698170 0.924090 -0.000992 -5.780004 -1.805074 5.096074 83.264618 -24.879356 -2.356775 105.290443 0.407195 16.989496 -6.694311 7.715413 -14.519304 -55.165359 25.888561 35.663948 105.389481 -20.781010 -1.543901 18.021530 -7.600664 0.515389 -56.939903 -20.735640 -11.977244 72.447281 3.050399 0.130311 12.792534 -1.150544 -4.345870 
0.276743 8.387752 0.113342 -7.001640 90.000000 0.000000 22.116825 0.233392 -0.001802 5.930586 0.814312 -0.594912 17.181641 -5.527750 0.280922 10.026298 -20.470034 0.610515 -20.341993 -31.467957 -6.393997 -20.434189 -41.493618 5.238357 -17.088903 -29.254349 7.772098 -4.392196 1.850324 0.019105 -6.154564 -2.597491 5.793807 83.923454 -25.271151 -2.536382 105.788681 0.737012 16.995100 -6.781848 8.660711 -14.809450 -55.403534 26.011141 35.624985 105.926056 -20.686148 -1.740442 17.711300 -7.485247 0.436081 -57.272449 -20.780287 -11.900424 73.094025 2.992893 0.171584 12.483361 -1.181359 -4.325735 
0.415114 8.375737 0.170013 -7.001640 90.000000 0.000000 22.849792 0.233495 -0.001728 5.530741 0.814242 -0.594890 16.840328 -5.322328 0.286374 10.026815 -20.203100 0.588178 -18.875574 -30.664175 -5.836574 -20.486216 -42.011581 5.181985 -19.619982 -31.150570 6.105043 -3.082208 2.777862 0.060455 -6.520090 -3.395249 6.487584 84.586075 -25.661215 -2.721641 106.287071 1.066963 16.997835 -6.874548 9.606334 -15.102069 -55.642052 26.133575 35.585388 106.462051 -20.589542 -1.935945 17.401285 -7.369395 0.357418 -57.605186 -20.824520 -11.823297 73.740936 2.934907 0.212217 12.174170 -1.212285 -4.305765 
0.553485 8.363722 0.226684 -7.001640 90.000000 0.000000 23.583035 0.233597 -0.001652 5.130851 0.814172 -0.594867 16.499121 -5.116858 0.290596 10.027221 -19.936152 0.565879 -17.428032 -29.847231 -5.306818 -20.537979 -42.529671 5.125773 -22.267767 -32.979782 4.305568 -1.768018 3.705857 0.123212 -6.876551 -4.198062 7.177490 85.252533 -26.049452 -2.912588 106.785637 1.397006 16.997700 -6.972498 10.552110 -15.397303 -55.880936 26.255873 35.545200 106.997444 -20.491217 -2.130385 17.091486 -7.253114 0.279403 -57.938107 -20.868338 -11.745872 74.387955 2.876448 0.252200 11.864966 -1.243321 -4.285960 
0.691856 8.351707 0.283354 -7.001640 90.000000 0.000000 24.316484 0.233699 -0.001575 4.730927 0.814102 -0.594844 16.158009 -4.911352 0.293589 10.027518 -19.669199 0.543620 -15.999153 -29.018066 -4.804511 -20.589497 -43.047878 5.069721 -25.036531 -34.732628 2.369732 -0.449434 4.633447 0.207509 -7.223921 -5.005640 7.863619 85.922829 -26.435762 -3.109259 107.284355 1.727100 16.994686 -7.075792 11.497870 -15.695295 -56.120171 26.378019 35.504395 107.532196 -20.391176 -2.323738 16.781914 -7.136411 0.202039 -58.271206 -20.911734 -11.668144 75.035034 2.817528 0.291527 11.555751 -1.274464 -4.266322 
